HIERARCHY
ROOT Hips
{
  OFFSET 1.73907 43.2358 0.0522707
  CHANNELS 6 Xposition Yposition Zposition Zrotation Xrotation Yrotation
  JOINT Bip01_Pelvis
  {
    OFFSET 0 0 0
    CHANNELS 6 Xposition Yposition Zposition Zrotation Xrotation Yrotation
    JOINT BN_Tail_01
    {
      OFFSET -2.28979 -2.39917 0
      CHANNELS 6 Xposition Yposition Zposition Zrotation Xrotation Yrotation
      JOINT BN_Tail_02
      {
        OFFSET 9.67405 0 0
        CHANNELS 6 Xposition Yposition Zposition Zrotation Xrotation Yrotation
        JOINT BN_Tail_03
        {
          OFFSET 10.5192 0 -1.14441e-005
          CHANNELS 6 Xposition Yposition Zposition Zrotation Xrotation Yrotation
          JOINT BN_Tail_04
          {
            OFFSET 8.16754 0 0
            CHANNELS 6 Xposition Yposition Zposition Zrotation Xrotation Yrotation
            End Site
            {
              OFFSET 0 0 0
            }
          }
        }
      }
    }
    JOINT Bip01_Spine
    {
      OFFSET 2.25317 -0.00479889 0
      CHANNELS 6 Xposition Yposition Zposition Zrotation Xrotation Yrotation
      JOINT Bip01_R_Thigh
      {
        OFFSET -2.32652 -0.461891 -2.25534
        CHANNELS 6 Xposition Yposition Zposition Zrotation Xrotation Yrotation
        JOINT Bip01_R_Calf
        {
          OFFSET 9.47902 0 0
          CHANNELS 6 Xposition Yposition Zposition Zrotation Xrotation Yrotation
          JOINT Bip01_R_Foot
          {
            OFFSET 8.42616 0 0
            CHANNELS 6 Xposition Yposition Zposition Zrotation Xrotation Yrotation
            JOINT Bip01_R_Toe1
            {
              OFFSET 1.4015 3.97627 -1.33795
              CHANNELS 6 Xposition Yposition Zposition Zrotation Xrotation Yrotation
              JOINT Bip01_R_Toe11
              {
                OFFSET 2.94553 0 0
                CHANNELS 6 Xposition Yposition Zposition Zrotation Xrotation Yrotation
                JOINT Bip01_R_Toe1Nub
                {
                  OFFSET 2.52656 0 0
                  CHANNELS 6 Xposition Yposition Zposition Zrotation Xrotation Yrotation
                  End Site
                  {
                    OFFSET 0 0 0
                  }
                }
              }
            }
            JOINT Bip01_R_Toe0
            {
              OFFSET 2.09729 6.93129 0.0277901
              CHANNELS 6 Xposition Yposition Zposition Zrotation Xrotation Yrotation
              JOINT Bip01_R_Toe01
              {
                OFFSET 3.0714 0 0
                CHANNELS 6 Xposition Yposition Zposition Zrotation Xrotation Yrotation
                JOINT Bip01_R_Toe0Nub
                {
                  OFFSET 3.37999 0 0
                  CHANNELS 6 Xposition Yposition Zposition Zrotation Xrotation Yrotation
                  End Site
                  {
                    OFFSET 0 0 0
                  }
                }
              }
            }
          }
        }
      }
      JOINT Bip01_L_Thigh
      {
        OFFSET -2.07803 -0.462101 2.48614
        CHANNELS 6 Xposition Yposition Zposition Zrotation Xrotation Yrotation
        JOINT Bip01_L_Calf
        {
          OFFSET 9.47902 0 0
          CHANNELS 6 Xposition Yposition Zposition Zrotation Xrotation Yrotation
          JOINT Bip01_L_Foot
          {
            OFFSET 8.42617 0 0
            CHANNELS 6 Xposition Yposition Zposition Zrotation Xrotation Yrotation
            JOINT Bip01_L_Toe1
            {
              OFFSET 1.40151 3.97627 1.33796
              CHANNELS 6 Xposition Yposition Zposition Zrotation Xrotation Yrotation
              JOINT Bip01_L_Toe11
              {
                OFFSET 2.94554 0 0
                CHANNELS 6 Xposition Yposition Zposition Zrotation Xrotation Yrotation
                JOINT Bip01_L_Toe1Nub
                {
                  OFFSET 2.52656 0 0
                  CHANNELS 6 Xposition Yposition Zposition Zrotation Xrotation Yrotation
                  End Site
                  {
                    OFFSET 0 0 0
                  }
                }
              }
            }
            JOINT Bip01_L_Toe0
            {
              OFFSET 2.0973 6.93128 -0.0277834
              CHANNELS 6 Xposition Yposition Zposition Zrotation Xrotation Yrotation
              JOINT Bip01_L_Toe01
              {
                OFFSET 3.07141 0 0
                CHANNELS 6 Xposition Yposition Zposition Zrotation Xrotation Yrotation
                JOINT Bip01_L_Toe0Nub
                {
                  OFFSET 3.37999 0 0
                  CHANNELS 6 Xposition Yposition Zposition Zrotation Xrotation Yrotation
                  End Site
                  {
                    OFFSET 0 0 0
                  }
                }
              }
            }
          }
        }
      }
      JOINT Bip01_Spine1
      {
        OFFSET 6.17162 -0.00484467 0
        CHANNELS 6 Xposition Yposition Zposition Zrotation Xrotation Yrotation
        JOINT BN_R_Clavicle_01
        {
          OFFSET 6.15897 -2.02444 -2.78435
          CHANNELS 6 Xposition Yposition Zposition Zrotation Xrotation Yrotation
          JOINT BN_R_UpperArm_01
          {
            OFFSET 3.43915 0 0
            CHANNELS 6 Xposition Yposition Zposition Zrotation Xrotation Yrotation
            JOINT BN_R__Forearm_01
            {
              OFFSET 10.2529 0 0
              CHANNELS 6 Xposition Yposition Zposition Zrotation Xrotation Yrotation
              JOINT BN_R_Hand_01
              {
                OFFSET 16.2051 0 0
                CHANNELS 6 Xposition Yposition Zposition Zrotation Xrotation Yrotation
                JOINT BN_R_Finger_07
                {
                  OFFSET 2.2539 2.19923 0.192043
                  CHANNELS 6 Xposition Yposition Zposition Zrotation Xrotation Yrotation
                  End Site
                  {
                    OFFSET 0 0 0
                  }
                }
                JOINT BN_R_Finger_01
                {
                  OFFSET 2.17806 -1.99631 -0.219296
                  CHANNELS 6 Xposition Yposition Zposition Zrotation Xrotation Yrotation
                  End Site
                  {
                    OFFSET 0 0 0
                  }
                }
                JOINT BN_R_Finger_05
                {
                  OFFSET 3.30715 1.42802 0.17391
                  CHANNELS 6 Xposition Yposition Zposition Zrotation Xrotation Yrotation
                  End Site
                  {
                    OFFSET 0 0 0
                  }
                }
                JOINT BN_R_Finger_03
                {
                  OFFSET 3.93641 -0.769831 0.580946
                  CHANNELS 6 Xposition Yposition Zposition Zrotation Xrotation Yrotation
                  End Site
                  {
                    OFFSET 0 0 0
                  }
                }
              }
            }
          }
        }
        JOINT BN_L_Clavicle_01
        {
          OFFSET 6.15897 -2.02445 2.78458
          CHANNELS 6 Xposition Yposition Zposition Zrotation Xrotation Yrotation
          JOINT BN_L_UpperArm_01
          {
            OFFSET 3.43915 0 0
            CHANNELS 6 Xposition Yposition Zposition Zrotation Xrotation Yrotation
            JOINT BN_L__Forearm_01
            {
              OFFSET 10.2529 0 0
              CHANNELS 6 Xposition Yposition Zposition Zrotation Xrotation Yrotation
              JOINT BN_L_Hand_01
              {
                OFFSET 16.2051 0 0
                CHANNELS 6 Xposition Yposition Zposition Zrotation Xrotation Yrotation
                JOINT BN_L_Finger_05
                {
                  OFFSET 3.30715 -1.42803 0.173891
                  CHANNELS 6 Xposition Yposition Zposition Zrotation Xrotation Yrotation
                  End Site
                  {
                    OFFSET 0 0 0
                  }
                }
                JOINT BN_L_Finger_07
                {
                  OFFSET 2.2539 -2.19925 0.19203
                  CHANNELS 6 Xposition Yposition Zposition Zrotation Xrotation Yrotation
                  End Site
                  {
                    OFFSET 0 0 0
                  }
                }
                JOINT BN_L_Finger_01
                {
                  OFFSET 2.17804 1.99629 -0.219303
                  CHANNELS 6 Xposition Yposition Zposition Zrotation Xrotation Yrotation
                  End Site
                  {
                    OFFSET 0 0 0
                  }
                }
                JOINT BN_L_Finger_03
                {
                  OFFSET 3.9364 0.769825 0.580943
                  CHANNELS 6 Xposition Yposition Zposition Zrotation Xrotation Yrotation
                  End Site
                  {
                    OFFSET 0 0 0
                  }
                }
              }
            }
          }
        }
        JOINT Bip01_Neck
        {
          OFFSET 7.02381 -0.81237 0
          CHANNELS 6 Xposition Yposition Zposition Zrotation Xrotation Yrotation
          JOINT Bip01_Head
          {
            OFFSET 1.54249 1.14441e-005 0
            CHANNELS 6 Xposition Yposition Zposition Zrotation Xrotation Yrotation
            JOINT BN_Mouth_01
            {
              OFFSET 2.32836 0.166542 0
              CHANNELS 6 Xposition Yposition Zposition Zrotation Xrotation Yrotation
              End Site
              {
                OFFSET 0 0 0
              }
            }
            JOINT BN_R_Ear_01
            {
              OFFSET 3.4208 -0.773972 -2.25959
              CHANNELS 6 Xposition Yposition Zposition Zrotation Xrotation Yrotation
              End Site
              {
                OFFSET 0 0 0
              }
            }
            JOINT BN_L_Ear_01
            {
              OFFSET 3.4208 -0.773976 2.25975
              CHANNELS 6 Xposition Yposition Zposition Zrotation Xrotation Yrotation
              End Site
              {
                OFFSET 0 0 0
              }
            }
            JOINT Bip01_HeadNub
            {
              OFFSET 6.74789 0 0
              CHANNELS 6 Xposition Yposition Zposition Zrotation Xrotation Yrotation
              End Site
              {
                OFFSET 0 0 0
              }
            }
          }
        }
      }
    }
  }
}
MOTION
Frames:	4
Frame Time:	0.0333333
2.83541 68.4078 0.0595958 108.942 -86.31 110.849 4.76837e-007 2.22045e-016 1.42109e-014 -89.9983 -0.00149762 -93.5346 -2.28978 -2.39919 5.96046e-008 166.081 86.8891 38.821 9.67405 1.77636e-015 9.53674e-007 6.50742 -6.72023 3.7409 10.5192 9.53674e-007 -1.90735e-006 10.5393 1.54834 -1.53022 8.16752 1.90735e-006 3.8147e-006 48.3868 -63.4812 17.1213 2.25281 -0.00395823 -0.139342 15.2786 -2.39016 4.6379 -1.98616 0.692156 -2.37768 -53.2864 -4.71952 175.714 9.47902 0 -9.53675e-007 -101.791 -9.99887e-007 8.51944e-007 8.42616 -3.8147e-006 -1.77636e-014 -46.8069 9.87411 0.990877 1.40147 3.97644 -1.33748 85.4482 -41.301 29.1433 2.94554 -3.8147e-006 3.8147e-006 -18.2943 6.00908e-007 1.33962e-005 2.52655 0 -3.19744e-014 -1.13754e-005 9.32918e-006 1.00389e-005 2.09713 6.93133 0.0285977 56.5428 1.42725e-005 -2.50642e-006 3.07141 1.42109e-014 1.77636e-015 -8.31658 -1.14645e-006 9.92341e-006 3.37999 3.81475e-006 -0.000899315 3.62332e-007 -2.2085e-007 2.02131e-007 -2.36958 0.49459 2.35077 -19.7246 -1.16226 -179.315 9.479 -2.66454e-015 -4.76837e-007 -72.2684 2.87111e-006 9.72098e-006 8.42617 -1.42109e-014 4.76837e-007 -17.7471 3.59262 -1.40087 1.40146 3.9762 1.3382 71.6316 45.8523 -19.6046 2.94554 -0.000860214 -0.000806809 -20.3839 -0.00556951 0.0309717 2.52657 0.00079155 0.00079155 -179.965 0.00205202 0.0179098 2.09728 6.9313 -0.0273734 54.2556 5.14861e-007 2.24601e-007 3.07141 -3.8147e-006 -4.76837e-007 -20.3732 6.03567e-006 1.27168e-005 3.37999 7.10543e-015 -4.76837e-007 179.961 -0.00190107 -0.00725404 6.17424 -0.00452042 -0.000254631 16.8731 3.958 -1.73698 6.15898 -2.02444 -2.78435 -176.71 15.454 77.3699 3.43915 7.6294e-006 -7.6294e-006 -12.1172 48.0345 -38.6722 10.2529 -1.52588e-005 -5.72205e-006 -13.965 -6.95309 0.640489 16.2051 -0.0016098 7.62989e-006 19.7538 -2.54345 27.3804 2.25413 2.19902 0.191977 68.4119 0.478807 34.5956 2.17785 -1.99651 -0.219372 -70.9867 -0.157901 20.6065 3.30729 1.4277 0.173811 21.8197 1.22601 29.9149 3.93635 -0.770216 0.58081 -1.23038 0.402831 31.179 6.15897 -2.02445 2.78458 2.37228 11.5286 -101.413 3.43915 1.42109e-013 3.8147e-006 12.2515 -57.8324 -30.1855 10.2529 -1.90735e-005 1.14441e-005 18.5957 -1.1533 5.45391 16.2051 -3.8147e-006 -1.90735e-006 -14.5306 -8.39922 33.778 3.30715 -1.42802 0.173881 -21.8031 -1.10517 22.0044 2.25391 -2.19924 0.19203 -68.345 -0.405669 41.2495 2.17804 1.9963 -0.219309 71.0892 0.0458299 -11.4544 3.93641 0.769835 0.580928 0.590304 -2.60969 24.8875 7.02381 -0.812374 1.86316e-009 10.998 1.40101e-006 9.85525e-006 1.54249 -7.6294e-006 4.76837e-007 -9.61451 -37.8664 1.01309 2.10592 -0.356745 0.0332334 -79.8257 0.0242615 179.971 3.42079 -0.773963 -2.25959 169.913 -10.583 -178.807 3.42079 -0.773971 2.25975 -9.39019 12.969 -14.7614 6.74787 3.8147e-006 -5.96046e-008 -9.41003e-006 -5.98448e-008 1.00375e-005 
2.86796 68.4775 0.0971896 110.9 -86.6905 112.902 4.76837e-007 0 0 -89.9983 -0.00148256 -93.5346 -2.28978 -2.39919 5.96046e-008 156.502 86.8786 48.8247 9.67405 0 9.53674e-007 5.79209 -6.84422 2.58399 10.5192 9.53674e-007 -1.90735e-006 10.1128 1.17378 -3.1437 8.16752 1.90735e-006 3.8147e-006 41.3326 -66.8257 10.0447 2.25281 -0.00395823 -0.139342 14.5129 -2.56496 4.89319 -1.98294 0.67068 -2.38615 -52.5843 -4.52755 175.653 9.47902 0 -9.53675e-007 -101.088 -1.08476e-005 -1.05189e-006 8.42616 -3.8147e-006 -2.13163e-014 -47.583 10.0106 1.03987 1.40147 3.97644 -1.33748 85.448 -41.301 29.1432 2.94554 -3.8147e-006 3.8147e-006 -18.2943 6.05938e-007 1.3405e-005 2.52655 0 -4.61853e-014 -1.13754e-005 9.32918e-006 1.00389e-005 2.09713 6.93133 0.0285977 56.3144 1.42592e-005 -2.43749e-006 3.07141 0 7.10543e-015 -8.31658 -1.15563e-006 9.92551e-006 3.37999 3.81475e-006 -0.000899315 3.62332e-007 -2.2085e-007 2.02131e-007 -2.38665 0.458091 2.33914 -18.7016 -1.0329 -179.491 9.479 -1.77636e-015 -4.76837e-007 -71.3006 2.947e-006 9.66394e-006 8.42617 1.42109e-014 4.76837e-007 -18.9902 3.91732 -1.52141 1.40146 3.9762 1.3382 71.6316 45.8523 -19.6046 2.94554 -0.000860214 -0.000806809 -20.3839 -0.00556953 0.0309717 2.52657 0.00079155 0.00079155 -179.965 0.00205202 0.0179098 2.09728 6.9313 -0.0273734 54.2556 8.60311e-006 6.00938e-006 3.07141 -3.8147e-006 -4.76837e-007 -20.3732 9.4038e-006 3.54271e-006 3.37999 7.10543e-015 -4.76837e-007 179.961 -0.00190107 -0.00725404 6.17424 -0.00452042 -0.000254631 16.6966 2.9736 -0.960987 6.15898 -2.02444 -2.78435 -176.71 15.454 77.3699 3.43915 7.6294e-006 -7.6294e-006 -10.343 40.868 -52.2713 10.2529 -1.52588e-005 -5.72205e-006 -11.5214 -6.93884 0.937942 16.2051 -0.0016098 7.62981e-006 17.7624 -3.75656 24.4632 2.25413 2.19902 0.191976 68.4429 0.474763 31.1388 2.17785 -1.99651 -0.219372 -70.9831 -0.154458 20.6035 3.30729 1.4277 0.173811 21.8203 1.26143 27.7064 3.93635 -0.770216 0.58081 -1.23681 0.400704 31.563 6.15897 -2.02445 2.78458 2.37228 11.5286 -101.413 3.43915 1.20792e-013 3.8147e-006 10.0605 -47.5435 -45.3738 10.2529 -1.90735e-005 1.14441e-005 16.8513 -1.31924 5.41628 16.2051 -3.8147e-006 -1.90735e-006 -14.2223 -10.8663 29.936 3.30715 -1.42802 0.173882 -21.8141 -1.10328 20.3997 2.25391 -2.19924 0.192031 -68.3514 -0.410915 40.4673 2.17804 1.9963 -0.21931 71.0908 0.0499951 -11.5069 3.93641 0.769835 0.580928 0.595766 -2.64156 23.6267 7.02381 -0.812374 2.09188e-009 10.998 1.44524e-006 9.85827e-006 1.54249 -7.6294e-006 4.76837e-007 -9.98588 -39.1735 0.703308 2.10592 -0.356745 0.0332334 -79.2223 0.0234833 179.972 3.42079 -0.773963 -2.25959 170.47 -10.8019 -178.713 3.42079 -0.773971 2.25975 -8.9614 12.9441 -14.8209 6.74787 3.8147e-006 -5.96046e-008 6.07745e-007 -5.9843e-008 1.00375e-005 
2.89989 68.5459 0.134053 113.207 -87.0539 115.299 4.76837e-007 -2.22045e-016 -1.42109e-014 -89.9985 -0.00146663 -93.5347 -2.28978 -2.39919 5.96046e-008 148.076 86.8128 57.7292 9.67405 0 9.53674e-007 5.04841 -6.97941 1.39878 10.5192 9.53674e-007 -1.90735e-006 9.60174 0.835214 -4.77429 8.16752 1.90735e-006 3.8147e-006 31.0729 -70.0792 0.5599 2.25281 -0.00395823 -0.139342 13.8009 -2.73244 5.13138 -1.97979 0.649621 -2.39446 -51.9064 -4.4682 175.839 9.47902 -7.10543e-015 -9.53675e-007 -100.404 -1.03498e-006 8.82223e-007 8.42616 -3.8147e-006 -2.26486e-014 -48.3071 10.1257 1.07799 1.40147 3.97644 -1.33748 85.448 -41.301 29.1432 2.94554 -3.8147e-006 3.8147e-006 -18.2943 6.01116e-007 1.34237e-005 2.52655 0 -3.90799e-014 -1.13754e-005 9.32918e-006 2.10709e-008 2.09713 6.93133 0.0285977 56.1103 5.91733e-006 -7.9627e-006 3.07141 -1.42109e-014 1.77636e-015 -8.31658 -1.16236e-006 9.92946e-006 3.37999 3.81475e-006 -0.000899315 3.62332e-007 -2.2085e-007 2.02131e-007 -2.40477 0.42352 2.32918 -17.7257 -0.916519 -179.659 9.479 -2.66454e-015 -4.76837e-007 -70.3488 3.0193e-006 9.60513e-006 8.42617 1.42109e-014 4.76837e-007 -20.1906 4.23041 -1.62817 1.40146 3.9762 1.3382 71.6315 45.8523 -19.6045 2.94554 -0.000860214 -0.000806809 -20.3839 -0.00556955 0.0309716 2.52657 0.00079155 0.00079155 -179.965 0.00205202 0.0179098 2.09728 6.9313 -0.0273734 54.2556 5.97144e-007 2.17411e-007 3.07141 -3.8147e-006 -4.76837e-007 -20.3732 9.40593e-006 3.43632e-006 3.37999 7.10543e-015 -4.76837e-007 179.961 -0.00190107 -0.00725404 6.17424 -0.00452042 -0.000254631 16.5426 2.02385 -0.227086 6.15898 -2.02444 -2.78435 -176.71 15.454 77.3699 3.43915 7.6294e-006 -7.6294e-006 -11.1026 35.0597 -59.7999 10.2529 -1.52588e-005 -5.72205e-006 -9.35585 -6.92418 1.20447 16.2051 -0.0016098 7.62976e-006 16.1052 -5.0263 21.3382 2.25413 2.19902 0.191976 68.4731 0.468974 27.7491 2.17785 -1.99651 -0.219372 -70.9796 -0.151081 20.6005 3.30729 1.4277 0.173811 21.8223 1.29613 25.5408 3.93635 -0.770216 0.58081 -1.22722 0.400601 31.0882 6.15897 -2.02445 2.78458 2.37228 11.5286 -101.413 3.43915 6.39489e-014 3.8147e-006 12.6013 -38.2137 -54.4254 10.2529 -1.90735e-005 1.14441e-005 15.3064 -1.46518 5.37874 16.2051 -3.8147e-006 -1.90735e-006 -14.2158 -12.895 25.7419 3.30715 -1.42802 0.173882 -21.8249 -1.10112 18.8261 2.2539 -2.19924 0.192031 -68.3758 -0.421897 38.8265 2.17804 1.9963 -0.21931 71.0977 0.0945108 -12.1682 3.93641 0.769835 0.580928 0.60043 -2.6729 22.3903 7.02381 -0.812374 2.32217e-009 10.998 -3.17091e-007 5.83099e-007 1.54249 -7.6294e-006 4.76837e-007 -10.4963 -40.3703 0.324829 2.10592 -0.356745 0.0332334 -78.6305 0.0227203 179.972 3.42079 -0.773963 -2.25959 171.017 -11.0158 -178.62 3.42079 -0.773971 2.25975 -8.54099 12.9192 -14.879 6.74787 3.8147e-006 -5.96046e-008 6.07807e-007 -5.9843e-008 1.00375e-005 
2.93091 68.6077 0.169136 116.067 -87.4097 118.24 4.76837e-007 0 0 -89.9985 -0.00146663 -93.5347 -2.28978 -2.39919 5.96046e-008 140.354 86.6781 65.9622 9.67405 -1.77636e-015 9.53674e-007 4.25465 -7.13055 0.167042 10.5192 9.53674e-007 -1.90735e-006 9.00556 0.521274 -6.44652 8.16752 1.90735e-006 3.8147e-006 17.4159 -72.5693 -12.3224 2.25281 -0.00395823 -0.139342 13.1174 -2.89463 5.35235 -1.97705 0.630099 -2.40182 -51.2421 -4.32312 175.828 9.47902 -7.10543e-015 -9.53675e-007 -99.7393 -1.05008e-006 9.00403e-007 8.42616 -3.8147e-006 -2.35367e-014 -49.0009 10.2234 1.11376 1.40147 3.97644 -1.33748 85.448 -41.301 29.1432 2.94554 -3.8147e-006 3.8147e-006 -18.2943 6.01619e-007 1.34338e-005 2.52655 7.10543e-015 -4.9738e-014 -1.13754e-005 9.32918e-006 2.10188e-008 2.09713 6.93133 0.0285977 55.9043 1.42131e-005 -2.31332e-006 3.07141 0 1.77636e-015 -8.31658 -1.16876e-006 9.93229e-006 3.37999 3.81476e-006 -0.000899315 3.62332e-007 -2.2085e-007 2.02131e-007 -2.41744 0.389858 2.31839 -16.7723 -0.809582 -179.825 9.479 -5.32907e-015 -4.76837e-007 -69.389 3.09108e-006 9.54356e-006 8.42617 0 4.76837e-007 -21.384 4.53806 -1.72871 1.40146 3.9762 1.3382 71.6315 45.8523 -19.6045 2.94554 -0.000860214 -0.000806809 -20.3839 -0.00556956 0.0309716 2.52657 0.00079155 0.00079155 -179.965 0.00205202 0.0179098 2.09728 6.9313 -0.0273734 54.2556 5.16248e-007 1.35187e-007 3.07141 -3.8147e-006 -4.76837e-007 -20.3732 9.3259e-006 3.55359e-006 3.37999 -7.10543e-015 -4.76837e-007 179.961 -0.00190107 -0.00725404 6.17424 -0.00452042 -0.000254631 16.405 1.08475 0.49026 6.15898 -2.02444 -2.78435 -176.71 15.454 77.3699 3.43915 7.6294e-006 -7.6294e-006 -12.2504 32.4964 -62.0905 10.2529 -1.52588e-005 -5.72205e-006 -7.52617 -6.91507 1.42665 16.2051 -0.0016098 7.62974e-006 14.9671 -6.28828 18.188 2.25413 2.19902 0.191976 68.503 0.461337 24.3259 2.17785 -1.99651 -0.219372 -70.9761 -0.147671 20.5975 3.30729 1.4277 0.173811 21.837 1.29644 22.877 3.93635 -0.770216 0.58081 -1.19737 0.404146 29.4395 6.15897 -2.02445 2.78458 2.37228 11.5286 -101.413 3.43915 2.84217e-014 3.8147e-006 16.0758 -31.1085 -60.0502 10.2529 -1.90735e-005 1.14441e-005 13.9946 -1.58825 5.34379 16.2051 -3.8147e-006 -1.90735e-006 -14.3314 -14.1978 21.2757 3.30715 -1.42802 0.173882 -21.8358 -1.09863 17.237 2.2539 -2.19924 0.192032 -68.4008 -0.432251 37.1695 2.17804 1.9963 -0.219311 71.0811 0.187208 -13.3791 3.93641 0.769835 0.580927 0.583901 -2.71664 20.3611 7.02381 -0.812374 2.55847e-009 10.998 -3.86267e-007 3.06833e-008 1.54249 -7.6294e-006 4.76837e-007 -11.1418 -41.4868 -0.126392 2.10592 -0.356745 0.0332334 -78.0329 0.0219574 179.973 3.42079 -0.773963 -2.25959 171.57 -11.2308 -178.523 3.42079 -0.773971 2.25975 -8.11651 12.8936 -14.9375 6.74787 3.8147e-006 -5.96046e-008 6.07807e-007 -5.9843e-008 1.00375e-005 
